{"buffers":[{"uri":"eForce-3F v9.bin","byteLength":28032}],"asset":{"version":"2.0","generator":"gltfpack 0.16"},"bufferViews":[{"buffer":0,"byteOffset":0,"byteLength":11952,"byteStride":12,"target":34962},{"buffer":0,"byteOffset":11952,"byteLength":11952,"byteStride":12,"target":34962},{"buffer":0,"byteOffset":23904,"byteLength":4128,"target":34963}],"accessors":[{"bufferView":0,"byteOffset":0,"componentType":5126,"count":48,"type":"VEC3","min":[-270,-20,-50],"max":[1480,1020,0]},{"bufferView":1,"byteOffset":0,"componentType":5126,"count":48,"type":"VEC3"},{"bufferView":2,"byteOffset":0,"componentType":5123,"count":84,"type":"SCALAR"},{"bufferView":0,"byteOffset":576,"componentType":5126,"count":720,"type":"VEC3","min":[-270,-20,0],"max":[1480,1020,240]},{"bufferView":1,"byteOffset":576,"componentType":5126,"count":720,"type":"VEC3"},{"bufferView":2,"byteOffset":168,"componentType":5123,"count":1632,"type":"SCALAR"},{"bufferView":0,"byteOffset":9216,"componentType":5126,"count":228,"type":"VEC3","min":[185,60,20],"max":[1475,1015,230]},{"bufferView":1,"byteOffset":9216,"componentType":5126,"count":228,"type":"VEC3"},{"bufferView":2,"byteOffset":3432,"componentType":5123,"count":348,"type":"SCALAR"}],"materials":[{"pbrMetallicRoughness":{"baseColorFactor":[0.501960814,0.521568656,0.552941203,1],"metallicFactor":0},"doubleSided":true},{"pbrMetallicRoughness":{"baseColorFactor":[0.43921569,0.501960814,0.564705908,1],"metallicFactor":0},"doubleSided":true},{"pbrMetallicRoughness":{"baseColorFactor":[0.423529416,0.768627465,0.854901969,1],"metallicFactor":0},"doubleSided":true}],"meshes":[{"primitives":[{"attributes":{"POSITION":0,"NORMAL":1},"mode":4,"indices":2,"material":0}]},{"primitives":[{"attributes":{"POSITION":3,"NORMAL":4},"mode":4,"indices":5,"material":1}]},{"primitives":[{"attributes":{"POSITION":6,"NORMAL":7},"mode":4,"indices":8,"material":2}]}],"nodes":[{"mesh":0},{"mesh":1},{"mesh":2},{"children":[0]},{"children":[1]},{"children":[2]}],"scenes":[{"nodes":[3,4,5]}]}